<?xml version="1.0" standalone="no"?><!DOCTYPE svg PUBLIC "-//W3C//DTD SVG 1.1//EN" "http://www.w3.org/Graphics/SVG/1.1/DTD/svg11.dtd"><svg t="1503989597468" class="icon" style="" viewBox="0 0 1024 1024" version="1.1" xmlns="http://www.w3.org/2000/svg" p-id="5979" xmlns:xlink="http://www.w3.org/1999/xlink" width="48" height="48"><defs><style type="text/css"></style></defs><path d="M511.526209 683.3209c54.769394 0 99.343589-49.742914 99.343589-110.87932L610.869798 268.797979c0-61.131289-44.574195-110.878297-99.343589-110.878297-54.791907 0-99.365078 49.741891-99.365078 110.878297l0 303.643602C412.160107 633.577986 456.734302 683.3209 511.526209 683.3209L511.526209 683.3209zM641.288598 420.615687l0 156.596548c0 79.853699-58.20668 144.827503-129.762389 144.827503-71.554686 0-129.788995-64.97278-129.788995-144.827503l0-156.596548-21.089317 0 0 156.596548c0 88.878237 62.038962 161.882947 140.327002 167.949107l0 97.373725-78.266551 0 0 23.544229 177.614234 0 0-23.544229-78.248132 0 0-97.373725c78.270645-6.066159 140.309606-79.07087 140.309606-167.949107l0-156.596548L641.288598 420.615687 641.288598 420.615687zM641.288598 420.615687" p-id="5980" fill="#f4ea2a"></path><path d="M902.770961 674.884764c2.12029 2.201132 5.461385 2.091638 7.461949-0.234337 47.498804-55.253418 75.945693-127.381156 80.110549-203.092511 5.301749-96.344279-28.26781-189.56645-92.099604-255.762081-2.12029-2.202155-5.462408-2.091638-7.462972 0.234337-2.000564 2.330068-1.907443 5.996574 0.215918 8.193613 61.552891 63.831794 93.923136 153.727197 88.803535 246.62805-4.00522 73.010851-31.44006 142.56088-77.245292 195.83727C900.555503 669.020196 900.650671 672.687726 902.770961 674.884764L902.770961 674.884764zM902.770961 674.884764" p-id="5981" fill="#f4ea2a"></path><path d="M859.474876 629.989251c2.12336 2.197038 5.461385 2.091638 7.461949-0.233314 89.339748-103.920838 85.045955-268.290419-9.572006-366.410134-2.124384-2.202155-5.461385-2.092661-7.461949 0.233314-2.000564 2.330068-1.909489 5.996574 0.214894 8.193613 90.388637 93.733824 94.490048 250.752997 9.146311 350.021885C857.263511 624.12059 857.354586 627.78812 859.474876 629.989251L859.474876 629.989251zM859.474876 629.989251" p-id="5982" fill="#f4ea2a"></path><path d="M815.96799 576.901149c-2.000564 2.325975-1.904373 5.991458 0.214894 8.193613 2.12029 2.197038 5.461385 2.091638 7.461949-0.237407 66.799382-77.698616 63.590294-200.598714-7.15905-273.961582-2.12029-2.202155-5.461385-2.091638-7.461949 0.233314-2.000564 2.324952-1.904373 5.991458 0.214894 8.193613C875.757724 388.301723 878.769314 503.848343 815.96799 576.901149L815.96799 576.901149zM815.96799 576.901149" p-id="5983" fill="#f4ea2a"></path><path d="M768.147868 358.672916c-2.000564 2.325975-1.904373 5.993504 0.215918 8.193613 42.645263 44.222177 44.583404 118.30443 4.311189 165.140131-2.000564 2.330068-1.904373 5.996574 0.215918 8.193613 2.12336 2.202155 5.461385 2.091638 7.461949-0.233314 44.26311-51.482535 42.133609-132.916219-4.743024-181.52838C773.490549 356.23847 770.148431 356.347964 768.147868 358.672916L768.147868 358.672916zM768.147868 358.672916" p-id="5984" fill="#f4ea2a"></path><path d="M121.228015 680.679747c-2.12336 2.202155-5.461385 2.091638-7.461949-0.233314-47.498804-55.250348-75.949786-127.382179-80.110549-203.093535-5.301749-96.344279 28.26781-189.56645 92.100628-255.761058 2.119267-2.197038 5.456269-2.092661 7.461949 0.237407 2.000564 2.324952 1.904373 5.991458-0.215918 8.18952-61.556984 63.837934-93.922113 153.727197-88.804559 246.632143 4.00522 73.010851 31.44006 142.556786 77.245292 195.838294C123.444497 674.815179 123.348306 678.482709 121.228015 680.679747L121.228015 680.679747zM121.228015 680.679747" p-id="5985" fill="#f4ea2a"></path><path d="M164.521031 635.785258c-2.12029 2.197038-5.461385 2.091638-7.461949-0.233314-89.340771-103.920838-85.041862-268.290419 9.577123-366.410134 2.119267-2.202155 5.456269-2.091638 7.461949 0.233314 2.000564 2.330068 1.904373 5.996574-0.215918 8.193613-90.388637 93.735871-94.495164 250.752997-9.146311 350.021885C166.736489 629.92069 166.644391 633.587196 164.521031 635.785258L164.521031 635.785258zM164.521031 635.785258" p-id="5986" fill="#f4ea2a"></path><path d="M208.02894 582.696132c2.000564 2.325975 1.909489 5.993504-0.210801 8.195659-2.12336 2.197038-5.461385 2.091638-7.461949-0.237407-66.803475-77.698616-63.590294-200.598714 7.154957-273.962605 2.124384-2.202155 5.462408-2.091638 7.462972 0.233314 2.000564 2.331092 1.907443 5.996574-0.215918 8.193613C148.242276 394.096706 145.225569 509.645372 208.02894 582.696132L208.02894 582.696132zM208.02894 582.696132" p-id="5987" fill="#f4ea2a"></path><path d="M255.847016 364.469945c2.001587 2.324952 1.909489 5.991458-0.209778 8.193613-42.647309 44.221154-44.583404 118.303406-4.317329 165.139108 2.000564 2.330068 1.909489 5.996574-0.214894 8.193613-2.12029 2.202155-5.457292 2.091638-7.457856-0.233314-44.262086-51.482535-42.138726-132.916219 4.743024-181.52838C250.510474 362.033453 253.846452 362.142947 255.847016 364.469945L255.847016 364.469945zM255.847016 364.469945" p-id="5988" fill="#f4ea2a"></path></svg>